<svg width="16" height="16" viewBox="0 0 16 16" fill="none" xmlns="http://www.w3.org/2000/svg">
<path fill-rule="evenodd" clip-rule="evenodd" d="M11.102 1.30612C12.0547 1.30612 12.9683 1.68455 13.6419 2.35815C14.3155 3.03175 14.6939 3.94534 14.6939 4.89796V11.102C14.6939 12.0547 14.3155 12.9683 13.6419 13.6419C12.9683 14.3155 12.0547 14.6939 11.102 14.6939H4.89796C3.94534 14.6939 3.03175 14.3155 2.35815 13.6419C1.68455 12.9683 1.30612 12.0547 1.30612 11.102V4.89796C1.30612 3.94534 1.68455 3.03175 2.35815 2.35815C3.03175 1.68455 3.94534 1.30612 4.89796 1.30612H11.102ZM11.102 0H4.89796C3.60013 0.00387607 2.35657 0.521154 1.43886 1.43886C0.521154 2.35657 0.00387607 3.60013 0 4.89796V11.102C0.00387607 12.3999 0.521154 13.6434 1.43886 14.5611C2.35657 15.4788 3.60013 15.9961 4.89796 16H11.102C12.3999 15.9961 13.6434 15.4788 14.5611 14.5611C15.4788 13.6434 15.9961 12.3999 16 11.102V4.89796C15.9961 3.60013 15.4788 2.35657 14.5611 1.43886C13.6434 0.521154 12.3999 0.00387607 11.102 0ZM12.2678 2.7749C12.0827 2.7749 11.9019 2.82978 11.748 2.93259C11.5942 3.03541 11.4743 3.18155 11.4035 3.35253C11.3326 3.5235 11.3141 3.71164 11.3502 3.89315C11.3863 4.07466 11.4754 4.24139 11.6063 4.37225C11.7371 4.50311 11.9038 4.59222 12.0853 4.62833C12.2667 4.66443 12.4548 4.6459 12.6258 4.57508C12.7967 4.50426 12.9428 4.38433 13.0456 4.23045C13.1484 4.07658 13.2033 3.89567 13.2033 3.7106C13.2033 3.58773 13.1791 3.46605 13.1321 3.35253C13.0851 3.239 13.0161 3.13585 12.9293 3.04896C12.8424 2.96207 12.7393 2.89315 12.6258 2.84613C12.5123 2.7991 12.3906 2.7749 12.2678 2.7749ZM9.64837 5.62332C9.17343 5.30628 8.61512 5.13722 8.04408 5.13755C7.27936 5.13884 6.54632 5.44319 6.00558 5.98391C5.46484 6.52464 5.16048 7.25764 5.15918 8.02234C5.15886 8.59336 5.32792 9.15165 5.64497 9.62657C5.96202 10.1015 6.41282 10.4717 6.94033 10.6904C7.46784 10.909 8.04837 10.9663 8.60845 10.855C9.16854 10.7437 9.68302 10.4688 10.0868 10.065C10.4906 9.66121 10.7655 9.14675 10.8769 8.58669C10.9882 8.02662 10.9309 7.44612 10.7122 6.91863C10.4935 6.39114 10.1233 5.94036 9.64837 5.62332ZM5.71683 4.54211C6.40527 4.08038 7.21513 3.83309 8.04408 3.83147C8.59522 3.8304 9.14116 3.938 9.65067 4.14811C10.1602 4.35822 10.6233 4.66672 11.0134 5.05596C11.4036 5.4452 11.7132 5.90755 11.9245 6.41655C12.1358 6.92556 12.2447 7.47122 12.2449 8.02234C12.2452 8.85126 11.9998 9.66167 11.5397 10.3512C11.0795 11.0407 10.4253 11.5783 9.65972 11.8961C8.89411 12.2139 8.05148 12.2976 7.2383 12.1367C6.42512 11.9758 5.67789 11.5774 5.09105 10.992C4.50421 10.4065 4.1041 9.66025 3.94127 8.84748C3.77844 8.03471 3.86021 7.19191 4.17624 6.4256C4.49228 5.65928 5.02839 5.00384 5.71683 4.54211Z" fill="#26AFFF"/>
</svg>
