<svg width="78" height="78" viewBox="0 0 78 78" fill="none" xmlns="http://www.w3.org/2000/svg">
<g filter="url(#filter0_d)">
<circle cx="39" cy="34" r="19" fill="#26AFFF"/>
</g>
<path fill-rule="evenodd" clip-rule="evenodd" d="M43.9097 35.0014L40.9084 39.7058L39.5325 41.8618C39.4776 41.9477 39.3811 42 39.2775 42H39.2749C39.1702 41.9992 39.0737 41.9452 39.0198 41.8575L37.7078 39.7175L34.8141 34.9969C34.8057 34.9833 34.7987 34.9692 34.7927 34.9548C34.2741 34.1303 34 33.1888 34 32.2277C34 29.3452 36.406 27 39.3631 27C42.3203 27 44.7261 29.3452 44.7261 32.2277C44.7261 33.1886 44.4524 34.1297 43.9341 34.9536C43.9277 34.9702 43.9195 34.9862 43.9097 35.0014ZM35.3318 34.6911C34.8534 33.9488 34.6006 33.0971 34.6006 32.2277C34.6006 29.6679 36.7369 27.5854 39.3631 27.5854C41.9891 27.5854 44.1255 29.6679 44.1255 32.2277C44.1255 33.0975 43.8727 33.9492 43.3944 34.6911C43.3844 34.7067 43.3762 34.7229 43.3696 34.7397L40.1987 39.7093C40.1593 39.7682 40.146 39.7895 40.1096 39.8479C40.102 39.8601 40.0934 39.8739 40.0834 39.89L39.2827 41.1451L35.3586 34.7438C35.3516 34.7257 35.3426 34.7079 35.3318 34.6911ZM39.3555 30.3272C40.4307 30.3272 41.3055 31.1799 41.3055 32.2279C41.3055 33.2759 40.4307 34.1286 39.3555 34.1286C38.2803 34.1286 37.4055 33.2759 37.4055 32.2279C37.4055 31.1799 38.2803 30.3272 39.3555 30.3272ZM39.3555 30.9126C38.6114 30.9126 38.0061 31.5027 38.0061 32.2279C38.0061 32.9532 38.6112 33.5433 39.3555 33.5433C40.0998 33.5433 40.705 32.9532 40.705 32.2279C40.705 31.5027 40.0996 30.9126 39.3555 30.9126Z" fill="white"/>
<defs>
<filter id="filter0_d" x="0" y="0" width="78" height="78" filterUnits="userSpaceOnUse" color-interpolation-filters="sRGB">
<feFlood flood-opacity="0" result="BackgroundImageFix"/>
<feColorMatrix in="SourceAlpha" type="matrix" values="0 0 0 0 0 0 0 0 0 0 0 0 0 0 0 0 0 0 127 0"/>
<feOffset dy="5"/>
<feGaussianBlur stdDeviation="10"/>
<feColorMatrix type="matrix" values="0 0 0 0 0 0 0 0 0 0.639216 0 0 0 0 1 0 0 0 0.4 0"/>
<feBlend mode="normal" in2="BackgroundImageFix" result="effect1_dropShadow"/>
<feBlend mode="normal" in="SourceGraphic" in2="effect1_dropShadow" result="shape"/>
</filter>
</defs>
</svg>
