<svg width="78" height="78" viewBox="0 0 78 78" fill="none" xmlns="http://www.w3.org/2000/svg">
<g filter="url(#filter0_d)">
<circle cx="39" cy="34" r="19" fill="#26AFFF"/>
</g>
<path d="M46.9863 38.1133C46.9944 38.0893 47 38.064 47 38.0374V29.248C47 29.2212 46.9944 29.1957 46.9861 29.1716C46.9849 29.1683 46.9842 29.1649 46.9828 29.1616C46.9716 29.1333 46.9553 29.1079 46.9347 29.0855C46.9334 29.084 46.9332 29.0822 46.9318 29.0807C46.9309 29.0799 46.9299 29.0796 46.929 29.0787C46.9071 29.0566 46.8812 29.0387 46.8521 29.0253C46.8498 29.0243 46.8481 29.023 46.8458 29.022C46.8183 29.0103 46.7884 29.0036 46.7569 29.0017C46.7538 29.0015 46.7508 29.0008 46.7477 29.0008C46.7447 29.0007 46.7421 29 46.7392 29H32.2612C32.2582 29 32.2554 29.0007 32.2525 29.0008C32.2497 29.001 32.2469 29.0015 32.2441 29.0017C32.2123 29.0036 32.1818 29.0104 32.154 29.0223C32.1523 29.023 32.1509 29.0242 32.1491 29.0248C32.1195 29.0382 32.0933 29.0564 32.0712 29.0789C32.0703 29.0797 32.0693 29.0799 32.0684 29.0807C32.067 29.0821 32.0668 29.0839 32.0654 29.0854C32.0449 29.1077 32.0284 29.1333 32.0172 29.1616C32.0158 29.1649 32.0151 29.1683 32.0139 29.1717C32.0056 29.1959 32 29.2214 32 29.2482V38.0377C32 38.0648 32.0057 38.0907 32.0143 38.1151C32.0155 38.1185 32.0162 38.1216 32.0174 38.1249C32.0287 38.1534 32.0454 38.179 32.0661 38.2013C32.0673 38.2027 32.0677 38.2043 32.0689 38.2056C32.0699 38.2068 32.0713 38.2075 32.0726 38.2086C32.0811 38.2171 32.0905 38.2245 32.1002 38.2318C32.1046 38.2349 32.1084 38.2387 32.1129 38.2417C32.1244 38.2493 32.1368 38.2554 32.1495 38.2611C32.1526 38.2624 32.1554 38.2645 32.1585 38.2657C32.19 38.2784 32.2246 38.2857 32.261 38.2857H46.7388C46.7752 38.2857 46.8098 38.2786 46.8413 38.2657C46.8462 38.2637 46.8507 38.2607 46.8554 38.2584C46.8662 38.2533 46.877 38.248 46.8869 38.2415C46.8921 38.2381 46.8968 38.2336 46.9019 38.2298C46.9107 38.223 46.9194 38.2162 46.9271 38.2085C46.9285 38.2071 46.9301 38.2061 46.9314 38.2048C46.9328 38.2033 46.9332 38.2013 46.9346 38.1999C46.9549 38.1777 46.9713 38.1522 46.9824 38.1241C46.9842 38.1204 46.985 38.117 46.9863 38.1133ZM32.5222 29.8108L36.9153 33.6261L32.5222 37.4717V29.8108ZM41.5262 33.4391C41.5081 33.4504 41.489 33.4598 41.4738 33.4757C41.4681 33.4816 41.4662 33.4894 41.4611 33.4957L39.5001 35.1987L32.9339 29.4962H46.0663L41.5262 33.4391ZM37.3022 33.9621L39.324 35.7179C39.3739 35.7612 39.4369 35.7829 39.5001 35.7829C39.5633 35.7829 39.6262 35.7612 39.676 35.7179L41.6727 33.9839L46.0651 37.7894H32.9301L37.3022 33.9621ZM42.0599 33.6477L46.478 29.8108V37.4757L42.0599 33.6477Z" fill="white"/>
<defs>
<filter id="filter0_d" x="0" y="0" width="78" height="78" filterUnits="userSpaceOnUse" color-interpolation-filters="sRGB">
<feFlood flood-opacity="0" result="BackgroundImageFix"/>
<feColorMatrix in="SourceAlpha" type="matrix" values="0 0 0 0 0 0 0 0 0 0 0 0 0 0 0 0 0 0 127 0"/>
<feOffset dy="5"/>
<feGaussianBlur stdDeviation="10"/>
<feColorMatrix type="matrix" values="0 0 0 0 0 0 0 0 0 0.639216 0 0 0 0 1 0 0 0 0.4 0"/>
<feBlend mode="normal" in2="BackgroundImageFix" result="effect1_dropShadow"/>
<feBlend mode="normal" in="SourceGraphic" in2="effect1_dropShadow" result="shape"/>
</filter>
</defs>
</svg>
