<svg width="78" height="78" viewBox="0 0 78 78" fill="none" xmlns="http://www.w3.org/2000/svg">
<g filter="url(#filter0_d)">
<circle cx="39" cy="34" r="19" fill="#26AFFF"/>
</g>
<path d="M34.0397 36.971C35.5248 38.7395 37.3125 40.132 39.353 41.1173C40.1298 41.484 41.1688 41.9192 42.3263 41.9938C42.398 41.9969 42.4667 42 42.5384 42C43.3153 42 43.9393 41.7327 44.4478 41.1826C44.4509 41.1794 44.4572 41.1732 44.4603 41.167C44.6413 40.9494 44.8472 40.7536 45.0625 40.5454C45.2091 40.4055 45.3588 40.2594 45.5024 40.1102C46.1669 39.4202 46.1669 38.5437 45.4961 37.8755L43.621 36.0075C43.3028 35.678 42.9222 35.5039 42.5228 35.5039C42.1235 35.5039 41.7397 35.678 41.4121 36.0044L40.2952 37.1171C40.1922 37.058 40.0861 37.0052 39.9863 36.9554C39.8615 36.8933 39.7461 36.8342 39.6431 36.769C38.626 36.1256 37.7025 35.2864 36.8196 34.2078C36.3734 33.6453 36.0739 33.1728 35.8649 32.691C36.1581 32.4269 36.4327 32.1502 36.6979 31.8798C36.7915 31.7835 36.8882 31.6871 36.9849 31.5908C37.3219 31.2551 37.5028 30.8666 37.5028 30.4718C37.5028 30.0771 37.325 29.6886 36.9849 29.3529L36.0552 28.4266C35.946 28.3179 35.843 28.2122 35.7369 28.1034C35.531 27.892 35.3157 27.6745 35.1036 27.4787C34.7822 27.1647 34.4047 27 34.0054 27C33.6091 27 33.2285 27.1647 32.8947 27.4818L31.7278 28.6442C31.3035 29.0669 31.0633 29.5798 31.0133 30.1734C30.9541 30.9163 31.0913 31.7058 31.447 32.66C31.993 34.1363 32.8167 35.507 34.0397 36.971ZM31.7746 30.2387C31.812 29.8253 31.9712 29.4803 32.2707 29.1819L33.4313 28.0257C33.6122 27.8516 33.8119 27.7615 34.0054 27.7615C34.1957 27.7615 34.3891 27.8516 34.567 28.0319C34.776 28.2246 34.9725 28.4266 35.1847 28.6411C35.2908 28.7499 35.4 28.8587 35.5092 28.9706L36.4389 29.8968C36.6324 30.0895 36.7322 30.2853 36.7322 30.478C36.7322 30.6707 36.6324 30.8666 36.4389 31.0593C36.3422 31.1556 36.2455 31.2551 36.1488 31.3514C35.8586 31.6436 35.5872 31.9202 35.2877 32.1844C35.2814 32.1906 35.2783 32.1937 35.2721 32.2C35.0131 32.4579 35.0537 32.7035 35.1161 32.89C35.1192 32.8993 35.1223 32.9055 35.1254 32.9148C35.3657 33.4898 35.6995 34.0369 36.2205 34.6896C37.1565 35.8396 38.1424 36.7317 39.2282 37.4186C39.3623 37.5056 39.5058 37.574 39.64 37.6424C39.7648 37.7045 39.8802 37.7636 39.9832 37.8288C39.9957 37.8351 40.005 37.8413 40.0175 37.8475C40.1205 37.9003 40.2203 37.9252 40.3201 37.9252C40.5697 37.9252 40.732 37.7667 40.785 37.7138L41.9519 36.5514C42.1328 36.3711 42.3294 36.2748 42.5228 36.2748C42.7599 36.2748 42.9534 36.4208 43.075 36.5514L44.9564 38.4225C45.3308 38.7955 45.3276 39.1995 44.947 39.5943C44.816 39.7341 44.6787 39.8678 44.5321 40.0077C44.3137 40.219 44.0859 40.4366 43.88 40.6821C43.5212 41.0676 43.0938 41.2478 42.5415 41.2478C42.4885 41.2478 42.4323 41.2447 42.3793 41.2416C41.356 41.1763 40.4044 40.7785 39.6899 40.4397C37.7493 39.5041 36.0458 38.177 34.6325 36.4923C33.4687 35.0968 32.6856 33.7976 32.1677 32.4051C31.8464 31.5504 31.7247 30.8634 31.7746 30.2387Z" fill="white"/>
<defs>
<filter id="filter0_d" x="0" y="0" width="78" height="78" filterUnits="userSpaceOnUse" color-interpolation-filters="sRGB">
<feFlood flood-opacity="0" result="BackgroundImageFix"/>
<feColorMatrix in="SourceAlpha" type="matrix" values="0 0 0 0 0 0 0 0 0 0 0 0 0 0 0 0 0 0 127 0"/>
<feOffset dy="5"/>
<feGaussianBlur stdDeviation="10"/>
<feColorMatrix type="matrix" values="0 0 0 0 0 0 0 0 0 0.639216 0 0 0 0 1 0 0 0 0.4 0"/>
<feBlend mode="normal" in2="BackgroundImageFix" result="effect1_dropShadow"/>
<feBlend mode="normal" in="SourceGraphic" in2="effect1_dropShadow" result="shape"/>
</filter>
</defs>
</svg>
