<svg width="17" height="16" viewBox="0 0 17 16" fill="none" xmlns="http://www.w3.org/2000/svg">
<path fill-rule="evenodd" clip-rule="evenodd" d="M12.0236 1.30612C12.9763 1.30612 13.8899 1.68455 14.5635 2.35815C15.2371 3.03175 15.6155 3.94534 15.6155 4.89796V11.102C15.6155 12.0547 15.2371 12.9683 14.5635 13.6419C13.8899 14.3155 12.9763 14.6939 12.0236 14.6939H5.81956C4.86695 14.6939 3.95335 14.3155 3.27975 13.6419C2.60615 12.9683 2.22772 12.0547 2.22772 11.102V4.89796C2.22772 3.94534 2.60615 3.03175 3.27975 2.35815C3.95335 1.68455 4.86695 1.30612 5.81956 1.30612H12.0236ZM12.0236 0H5.81956C4.52173 0.00387607 3.27817 0.521154 2.36046 1.43886C1.44275 2.35657 0.925476 3.60013 0.9216 4.89796V11.102C0.925476 12.3999 1.44275 13.6434 2.36046 14.5611C3.27817 15.4788 4.52173 15.9961 5.81956 16H12.0236C13.3215 15.9961 14.565 15.4788 15.4827 14.5611C16.4004 13.6434 16.9177 12.3999 16.9216 11.102V4.89796C16.9177 3.60013 16.4004 2.35657 15.4827 1.43886C14.565 0.521154 13.3215 0.00387607 12.0236 0ZM13.1894 2.7749C13.0043 2.7749 12.8235 2.82978 12.6696 2.93259C12.5158 3.03541 12.3959 3.18155 12.3251 3.35253C12.2542 3.5235 12.2357 3.71164 12.2718 3.89315C12.3079 4.07466 12.397 4.24139 12.5279 4.37225C12.6587 4.50311 12.8254 4.59222 13.0069 4.62833C13.1883 4.66443 13.3764 4.6459 13.5474 4.57508C13.7183 4.50426 13.8644 4.38433 13.9672 4.23045C14.07 4.07658 14.1249 3.89567 14.1249 3.7106C14.1249 3.58773 14.1007 3.46605 14.0537 3.35253C14.0067 3.239 13.9377 3.13585 13.8509 3.04896C13.764 2.96207 13.6609 2.89315 13.5474 2.84613C13.4339 2.7991 13.3122 2.7749 13.1894 2.7749ZM10.57 5.62332C10.095 5.30628 9.53672 5.13722 8.96568 5.13755C8.20096 5.13884 7.46792 5.44319 6.92718 5.98391C6.38644 6.52464 6.08208 7.25764 6.08078 8.02234C6.08046 8.59336 6.24952 9.15165 6.56657 9.62657C6.88362 10.1015 7.33442 10.4717 7.86193 10.6904C8.38945 10.909 8.96997 10.9663 9.53005 10.855C10.0901 10.7437 10.6046 10.4688 11.0084 10.065C11.4122 9.66121 11.6871 9.14675 11.7985 8.58669C11.9098 8.02662 11.8525 7.44612 11.6338 6.91863C11.4151 6.39114 11.0449 5.94036 10.57 5.62332ZM6.63843 4.54211C7.32687 4.08038 8.13673 3.83309 8.96568 3.83147C9.51682 3.8304 10.0628 3.938 10.5723 4.14811C11.0818 4.35822 11.5449 4.66672 11.935 5.05596C12.3252 5.4452 12.6348 5.90755 12.8461 6.41655C13.0574 6.92556 13.1663 7.47122 13.1665 8.02234C13.1668 8.85126 12.9214 9.66167 12.4613 10.3512C12.0011 11.0407 11.3469 11.5783 10.5813 11.8961C9.81571 12.2139 8.97308 12.2976 8.1599 12.1367C7.34672 11.9758 6.59949 11.5774 6.01265 10.992C5.42581 10.4065 5.0257 9.66025 4.86287 8.84748C4.70004 8.03471 4.78181 7.19191 5.09784 6.4256C5.41388 5.65928 5.94999 5.00384 6.63843 4.54211Z" fill="#CCCCCC"/>
</svg>
