<svg width="17" height="16" viewBox="0 0 17 16" fill="none" xmlns="http://www.w3.org/2000/svg">
<path fill-rule="evenodd" clip-rule="evenodd" d="M12.0234 1.30612C12.976 1.30612 13.8896 1.68455 14.5632 2.35815C15.2368 3.03175 15.6153 3.94534 15.6153 4.89796V11.102C15.6153 12.0547 15.2368 12.9683 14.5632 13.6419C13.8896 14.3155 12.976 14.6939 12.0234 14.6939H5.81935C4.86673 14.6939 3.95313 14.3155 3.27953 13.6419C2.60593 12.9683 2.22751 12.0547 2.22751 11.102V4.89796C2.22751 3.94534 2.60593 3.03175 3.27953 2.35815C3.95313 1.68455 4.86673 1.30612 5.81935 1.30612H12.0234ZM12.0234 0H5.81935C4.52152 0.00387607 3.27795 0.521154 2.36025 1.43886C1.44254 2.35657 0.925263 3.60013 0.921387 4.89796V11.102C0.925263 12.3999 1.44254 13.6434 2.36025 14.5611C3.27795 15.4788 4.52152 15.9961 5.81935 16H12.0234C13.3213 15.9961 14.5648 15.4788 15.4825 14.5611C16.4002 13.6434 16.9175 12.3999 16.9214 11.102V4.89796C16.9175 3.60013 16.4002 2.35657 15.4825 1.43886C14.5648 0.521154 13.3213 0.00387607 12.0234 0ZM13.1891 2.7749C13.0041 2.7749 12.8232 2.82978 12.6694 2.93259C12.5156 3.03541 12.3956 3.18155 12.3248 3.35253C12.254 3.5235 12.2355 3.71164 12.2716 3.89315C12.3077 4.07466 12.3968 4.24139 12.5276 4.37225C12.6585 4.50311 12.8252 4.59222 13.0066 4.62833C13.1881 4.66443 13.3762 4.6459 13.5472 4.57508C13.7181 4.50426 13.8642 4.38433 13.967 4.23045C14.0698 4.07658 14.1247 3.89567 14.1247 3.7106C14.1247 3.58773 14.1005 3.46605 14.0535 3.35253C14.0064 3.239 13.9375 3.13585 13.8507 3.04896C13.7638 2.96207 13.6607 2.89315 13.5472 2.84613C13.4337 2.7991 13.312 2.7749 13.1891 2.7749ZM10.5698 5.62332C10.0948 5.30628 9.53651 5.13722 8.96547 5.13755C8.20074 5.13884 7.46771 5.44319 6.92697 5.98391C6.38622 6.52464 6.08186 7.25764 6.08057 8.02234C6.08025 8.59336 6.24931 9.15165 6.56636 9.62657C6.88341 10.1015 7.33421 10.4717 7.86172 10.6904C8.38923 10.909 8.96975 10.9663 9.52984 10.855C10.0899 10.7437 10.6044 10.4688 11.0082 10.065C11.412 9.66121 11.6869 9.14675 11.7983 8.58669C11.9096 8.02662 11.8523 7.44612 11.6336 6.91863C11.4149 6.39114 11.0447 5.94036 10.5698 5.62332ZM6.63821 4.54211C7.32665 4.08038 8.13652 3.83309 8.96547 3.83147C9.51661 3.8304 10.0625 3.938 10.5721 4.14811C11.0816 4.35822 11.5447 4.66672 11.9348 5.05596C12.325 5.4452 12.6346 5.90755 12.8459 6.41655C13.0572 6.92556 13.1661 7.47122 13.1663 8.02234C13.1666 8.85126 12.9212 9.66167 12.4611 10.3512C12.0009 11.0407 11.3467 11.5783 10.5811 11.8961C9.8155 12.2139 8.97287 12.2976 8.15969 12.1367C7.34651 11.9758 6.59928 11.5774 6.01244 10.992C5.4256 10.4065 5.02548 9.66025 4.86266 8.84748C4.69983 8.03471 4.7816 7.19191 5.09763 6.4256C5.41366 5.65928 5.94977 5.00384 6.63821 4.54211Z" fill="#383838"/>
</svg>
