<svg width="21" height="13" viewBox="0 0 21 13" fill="none" xmlns="http://www.w3.org/2000/svg">
<path d="M20.9808 12.7587C20.9922 12.7251 21 12.6896 21 12.6523V0.347195C21 0.309673 20.9922 0.274004 20.9805 0.240188C20.9788 0.235555 20.9778 0.230923 20.9759 0.22629C20.9603 0.186684 20.9374 0.151015 20.9086 0.119746C20.9067 0.117662 20.9065 0.115114 20.9045 0.11303C20.9033 0.111871 20.9018 0.111408 20.9006 0.11025C20.8699 0.0792132 20.8336 0.0541985 20.7929 0.0354375C20.7898 0.0340478 20.7873 0.0321947 20.7842 0.030805C20.7457 0.0143602 20.7038 0.00509564 20.6597 0.00231623C20.6553 0.00208461 20.6512 0.00115789 20.6468 0.00115789C20.6426 0.000926276 20.639 0 20.6348 0H0.365652C0.36151 0 0.357613 0.000926276 0.353471 0.00115789C0.349574 0.00138951 0.345676 0.00208461 0.341778 0.00231623C0.297198 0.00509564 0.254568 0.014592 0.215591 0.0312684C0.213155 0.0321949 0.211206 0.0338161 0.20877 0.0347425C0.167357 0.0535036 0.130572 0.0789814 0.0996346 0.110481C0.0984165 0.11164 0.0969548 0.111871 0.0957368 0.11303C0.093788 0.114883 0.0935444 0.11743 0.0915956 0.119515C0.0628502 0.150783 0.0397077 0.186684 0.0241169 0.22629C0.0221681 0.230923 0.0211936 0.235555 0.0194884 0.240419C0.00779535 0.274235 0 0.309904 0 0.347426V12.6528C0 12.6908 0.00803892 12.7269 0.0199756 12.7612C0.0216808 12.7658 0.0226553 12.7702 0.0243605 12.7749C0.0401949 12.8147 0.0635809 12.8506 0.0925699 12.8819C0.0942752 12.8837 0.0947625 12.886 0.0964677 12.8879C0.0979293 12.8895 0.0998782 12.8904 0.101583 12.8921C0.11352 12.9039 0.126675 12.9143 0.140317 12.9245C0.146407 12.9289 0.151766 12.9342 0.1581 12.9384C0.174178 12.949 0.191474 12.9576 0.209257 12.9655C0.213642 12.9673 0.21754 12.9704 0.221924 12.972C0.266017 12.9898 0.314494 13 0.365408 13H20.6343C20.6853 13 20.7337 12.99 20.7778 12.972C20.7847 12.9692 20.791 12.965 20.7976 12.9618C20.8127 12.9546 20.8278 12.9472 20.8417 12.9382C20.849 12.9333 20.8555 12.927 20.8626 12.9217C20.875 12.9122 20.8872 12.9027 20.8979 12.8918C20.8999 12.89 20.9021 12.8886 20.904 12.8867C20.906 12.8847 20.9065 12.8819 20.9084 12.8798C20.9369 12.8488 20.9598 12.8131 20.9754 12.7737C20.9778 12.7686 20.979 12.7638 20.9808 12.7587ZM0.73106 1.13516L6.88136 6.47649L0.73106 11.8604V1.13516ZM13.3367 6.21476C13.3113 6.23051 13.2845 6.24372 13.2633 6.26595C13.2553 6.27429 13.2526 6.28517 13.2456 6.29398L10.5001 8.67825L1.30743 0.694621H19.6928L13.3367 6.21476ZM7.42314 6.94691L10.2536 9.40506C10.3235 9.46575 10.4117 9.49609 10.5001 9.49609C10.5886 9.49609 10.6767 9.46575 10.7464 9.40506L13.5418 6.97748L19.6911 12.3051H1.30207L7.42314 6.94691ZM14.0838 6.50683L20.2692 1.13516V11.866L14.0838 6.50683Z" fill="#CCCCCC"/>
</svg>
