<svg width="15" height="21" viewBox="0 0 15 21" fill="none" xmlns="http://www.w3.org/2000/svg">
<path fill-rule="evenodd" clip-rule="evenodd" d="M13.5237 10.9195L9.4278 17.3395L7.55016 20.2819C7.47531 20.3991 7.34363 20.4704 7.20212 20.4704H7.19857C7.05569 20.4694 6.92401 20.3956 6.85052 20.276L5.06003 17.3555L1.11107 10.9134C1.09959 10.8947 1.09003 10.8755 1.08183 10.8558C0.373998 9.73071 0 8.4458 0 7.13425C0 3.20043 3.28348 0 7.31905 0C11.3546 0 14.6378 3.20043 14.6378 7.13425C14.6378 8.44553 14.2644 9.72991 13.5571 10.8542C13.5483 10.8769 13.5371 10.8987 13.5237 10.9195ZM1.81754 10.4961C1.16461 9.48304 0.819571 8.32063 0.819571 7.13425C0.819571 3.64089 3.73506 0.798909 7.31905 0.798909C10.9028 0.798909 13.8182 3.64089 13.8182 7.13425C13.8182 8.32117 13.4732 9.48358 12.8206 10.4961C12.8069 10.5174 12.7957 10.5395 12.7867 10.5624L8.45934 17.3443C8.40552 17.4248 8.38745 17.4538 8.33774 17.5336C8.32739 17.5502 8.31568 17.569 8.30198 17.5909L7.20922 19.3038L1.85414 10.568C1.84458 10.5432 1.83229 10.519 1.81754 10.4961ZM7.30841 4.54064C8.77574 4.54064 9.9696 5.70431 9.9696 7.13452C9.9696 8.56474 8.77574 9.7284 7.30841 9.7284C5.84108 9.7284 4.64722 8.56474 4.64722 7.13452C4.64722 5.70431 5.84108 4.54064 7.30841 4.54064ZM7.30841 5.3395C6.29294 5.3395 5.4668 6.14474 5.4668 7.13452C5.4668 8.1243 6.29267 8.92955 7.30841 8.92955C8.32415 8.92955 9.15002 8.1243 9.15002 7.13452C9.15002 6.14474 8.32388 5.3395 7.30841 5.3395Z" fill="#CCCCCC"/>
</svg>
