<svg width="17" height="16" viewBox="0 0 17 16" fill="none" xmlns="http://www.w3.org/2000/svg">
<path fill-rule="evenodd" clip-rule="evenodd" d="M15.8816 7.3744C15.8816 3.8816 12.7616 1.04 8.9216 1.04C5.0816 1.04 1.9616 3.8816 1.9616 7.3744C1.9616 9.256 2.8736 11.0288 4.4688 12.2304L4.8784 12.5504V14.3008L6.3184 13.56L6.6672 13.3808L7.048 13.4768C7.66043 13.6321 8.28979 13.7105 8.9216 13.7104C12.7616 13.7104 15.8816 10.8672 15.8816 7.3744ZM0.9216 7.3744C0.9216 3.3024 4.504 0 8.9216 0C13.3392 0 16.9216 3.304 16.9216 7.376C16.9216 11.448 13.3392 14.7504 8.9216 14.7504C8.20339 14.7502 7.488 14.6604 6.792 14.4832L3.832 16V13.0656C2.0544 11.712 0.9216 9.6656 0.9216 7.3744ZM8.0848 5.21891L3.992 9.60949L7.7264 7.57741L9.7424 9.7807L13.8512 5.29572L10.1632 7.3118L8.0848 5.21891Z" fill="#CCCCCC"/>
</svg>
