<svg width="24" height="16" viewBox="0 0 24 16" fill="none" xmlns="http://www.w3.org/2000/svg">
<path fill-rule="evenodd" clip-rule="evenodd" d="M20.3721 1.58702C17.2357 1.3609 12.4851 1.3609 12.437 1.3609V1.37556H12.4307C12.3846 1.37556 7.6382 1.37765 4.49766 1.60167L4.35948 1.61424L4.35015 1.61515C3.94417 1.65468 3.48512 1.69938 3.04464 2.15441C2.83945 2.35959 2.59659 3.10076 2.51493 3.63465C2.38289 4.79628 2.313 5.96413 2.30556 7.13321V8.84166C2.31269 10.0108 2.38258 11.1786 2.51493 12.3402C2.59449 12.8678 2.83317 13.6069 3.04254 13.8163C3.43197 14.2204 3.97424 14.2853 4.4516 14.3418C4.57303 14.3544 4.67563 14.369 4.7824 14.3858C6.5767 14.5386 12.1983 14.5951 12.439 14.5951C12.6484 14.5951 17.2901 14.5742 20.3721 14.3648L20.5144 14.3502L20.5177 14.3499C20.9252 14.3102 21.3866 14.2652 21.8272 13.81C22.0324 13.6132 22.2773 12.8616 22.3548 12.3444C22.4869 11.1821 22.5568 10.0135 22.5642 8.84376V7.11856C22.557 5.94946 22.4871 4.78159 22.3548 3.62C22.2731 3.09029 22.0344 2.34912 21.8251 2.13975C21.3812 1.68123 20.929 1.63727 20.5102 1.59958L20.3721 1.58702ZM4.38041 0.244962C7.60261 0.0146555 12.437 0.0146558 12.437 0.0146558V0C12.437 0 17.2755 0 20.504 0.2324C20.5457 0.237104 20.5922 0.241423 20.6428 0.24613C21.1328 0.291698 22.0138 0.37361 22.807 1.1934C23.4979 1.88432 23.722 3.4525 23.722 3.4525C23.8654 4.67502 23.9423 5.90444 23.9523 7.1353V8.86051C23.9409 10.0915 23.8626 11.3209 23.7178 12.5433C23.7178 12.5433 23.4917 14.1115 22.8028 14.8003C22.0158 15.6177 21.1381 15.7015 20.6441 15.7487C20.5914 15.7538 20.5431 15.7584 20.4998 15.7634C17.2755 16 12.437 16 12.437 16C12.437 16 6.44898 15.9456 4.60653 15.7718C4.51833 15.7552 4.4113 15.7423 4.29008 15.7277C3.70633 15.6573 2.79329 15.5472 2.06688 14.7982C1.37596 14.1094 1.15194 12.5412 1.15194 12.5412C1.00848 11.3187 0.931595 10.0893 0.921631 8.85841V7.13321C0.935624 5.90705 1.016 4.68254 1.16241 3.46506C1.16241 3.46506 1.38852 1.89689 2.07735 1.20597C2.86523 0.389749 3.74006 0.306693 4.2341 0.25979C4.28752 0.254718 4.33649 0.250069 4.38041 0.244962ZM16.2307 8L10.3705 11.4315V4.56848L16.2307 8Z" fill="#CCCCCC"/>
</svg>
